{
	"asset":{
		"generator":"Khronos glTF Blender I/O v4.1.63",
		"version":"2.0"
	},
	"scene":0,
	"scenes":[
		{
			"name":"Scene",
			"nodes":[
				0
			]
		}
	],
	"nodes":[
		{
			"mesh":0,
			"name":"Plane",
			"scale":[
				2.6362898349761963,
				2.6362898349761963,
				2.6362898349761963
			]
		}
	],
	"materials":[
		{
			"doubleSided":true,
			"name":"Material.001",
			"pbrMetallicRoughness":{
				"baseColorTexture":{
					"index":0
				},
				"metallicFactor":0,
				"roughnessFactor":0.5
			}
		}
	],
	"meshes":[
		{
			"name":"Plane",
			"primitives":[
				{
					"attributes":{
						"POSITION":0,
						"NORMAL":1,
						"TEXCOORD_0":2
					},
					"indices":3,
					"material":0
				}
			]
		}
	],
	"textures":[
		{
			"sampler":0,
			"source":0
		}
	],
	"images":[
		{
			"mimeType":"image/jpeg",
			"name":"grass",
			"uri":"grass.jpg"
		}
	],
	"accessors":[
		{
			"bufferView":0,
			"componentType":5126,
			"count":15450,
			"max":[
				0.9165141582489014,
				0.34561634063720703,
				0.9167443513870239
			],
			"min":[
				-0.9170110821723938,
				-0.0047120279632508755,
				-0.9166246652603149
			],
			"type":"VEC3"
		},
		{
			"bufferView":1,
			"componentType":5126,
			"count":15450,
			"type":"VEC3"
		},
		{
			"bufferView":2,
			"componentType":5126,
			"count":15450,
			"type":"VEC2"
		},
		{
			"bufferView":3,
			"componentType":5123,
			"count":24588,
			"type":"SCALAR"
		}
	],
	"bufferViews":[
		{
			"buffer":0,
			"byteLength":185400,
			"byteOffset":0,
			"target":34962
		},
		{
			"buffer":0,
			"byteLength":185400,
			"byteOffset":185400,
			"target":34962
		},
		{
			"buffer":0,
			"byteLength":123600,
			"byteOffset":370800,
			"target":34962
		},
		{
			"buffer":0,
			"byteLength":49176,
			"byteOffset":494400,
			"target":34963
		}
	],
	"samplers":[
		{
			"magFilter":9729,
			"minFilter":9987
		}
	],
	"buffers":[
		{
			"byteLength":543576,
			"uri":"scene.bin"
		}
	]
}
